<svg xmlns="http://www.w3.org/2000/svg" xmlns:svg="http://www.w3.org/2000/svg" id="svg4812" width="264.567" height="318.552" version="1.1" viewBox="0 0 70 84.284"><metadata id="metadata4809"/><g id="layer1" transform="translate(-9.9999792,-10.000082)"><g id="SvgjsG1020" fill="#fff" featureKey="symbol1" transform="matrix(0.10341565,0,0,0.10341565,1.2287665,8.3453496)"><path id="path57" d="M 752.4375,82.365234 C 638.02019,348.60552 87.938206,381.6089 263.96484,810.67383 c 2.20034,5.50083 -40.70621,63.80947 -69.31054,112.21679 -6.601,-24.20366 -14.30329,-50.6063 -13.20313,-52.80664 C 324.47281,700.65835 79.135592,604.94324 65.933594,466.32227 4.3242706,576.33891 -17.678136,768.86756 168.25,879.98438 c 1.10017,-10e-6 9.90207,41.80777 14.30273,62.71093 -4.40066,8.80133 -8.80162,17.60213 -11.00195,24.20313 -4.40066,11.00166 28.60352,9.90123 28.60352,12.10156 3.3005,-1.10017 81.41295,-138.62054 83.61328,-139.7207 C 726.0345,738.06398 804.14532,339.80419 752.4375,82.365234 Z M 526.9043,362.90625 C 320.073,547.73422 284.86775,685.25508 291.46875,752.36523 222.15826,588.44043 425.68898,408.01308 526.9043,362.90625 Z M 127.54297,626.94727 c 39.60599,36.30549 105.6163,147.4222 49.50781,212.33203 13.202,-29.7045 17.60234,-96.81455 -49.50781,-212.33203 z" transform="matrix(0.90895334,0,0,0.90895334,65.06894,-58.865357)" style="fill:#fff;stroke-width:1.10017"/></g></g></svg>